<?xml version="1.0" standalone="no"?>
<!DOCTYPE svg PUBLIC "-//W3C//DTD SVG 20010904//EN"
 "http://www.w3.org/TR/2001/REC-SVG-20010904/DTD/svg10.dtd">
<svg version="1.0" xmlns="http://www.w3.org/2000/svg"
 width="512.000000pt" height="512.000000pt" viewBox="0 0 512.000000 512.000000"
 preserveAspectRatio="xMidYMid meet">
<metadata>
Created by potrace 1.16, written by Peter Selinger 2001-2019
</metadata>
<g transform="translate(0.000000,512.000000) scale(0.100000,-0.100000)"
fill="#000000" stroke="none">
<path d="M2415 4579 c-182 -13 -248 -46 -261 -130 -5 -31 -1 -41 27 -73 27
-32 34 -48 37 -96 l4 -59 -73 5 c-64 4 -79 2 -114 -18 -88 -51 -109 -166 -44
-234 37 -38 80 -50 131 -36 68 19 68 19 68 -241 -1 -355 -17 -425 -122 -522
-32 -30 -67 -55 -77 -55 -28 0 -52 -24 -60 -60 -6 -31 -17 -40 -101 -89 -52
-29 -117 -60 -145 -67 -52 -14 -85 -43 -85 -74 0 -10 -20 -51 -44 -91 -83
-139 -91 -174 -91 -411 0 -205 0 -207 -24 -232 -14 -14 -28 -26 -32 -26 -4 0
-16 35 -27 78 l-20 77 -1 -52 c-2 -120 80 -666 104 -693 10 -11 24 -64 36
-138 28 -176 53 -243 136 -360 80 -113 223 -211 359 -246 72 -18 289 -36 438
-36 439 0 756 107 905 305 46 60 92 150 116 222 15 46 15 54 2 73 -10 15 -12
33 -7 68 5 26 22 193 39 372 18 179 35 343 40 365 8 36 9 33 10 -32 1 -68 13
-95 25 -55 11 37 36 232 42 333 11 180 -34 321 -151 462 -31 37 -53 72 -49 78
22 36 -37 92 -87 82 -21 -4 -45 11 -125 75 -205 163 -214 189 -214 652 l1 265
43 28 c72 45 95 121 56 184 -26 44 -54 56 -113 50 l-50 -4 6 65 c5 51 12 71
32 92 34 36 35 97 0 138 -32 38 -83 51 -249 62 -145 10 -137 10 -291 -1z m345
-69 c137 -18 176 -46 132 -93 -26 -29 -42 -61 -42 -86 0 -12 -9 -23 -22 -27
-30 -10 -486 -10 -515 0 -12 4 -26 20 -32 37 -6 16 -20 43 -32 60 -43 61 -11
88 132 109 78 11 292 11 379 0z m32 -257 c-13 -7 -31 -13 -38 -13 -8 0 -13 -6
-12 -12 2 -10 -45 -14 -202 -16 -113 -1 -215 0 -227 3 -15 4 -23 13 -23 28 l0
22 263 0 c216 0 259 -2 239 -12z m-566 -88 c10 -39 0 -48 -12 -10 -6 19 -7 35
-3 35 5 0 11 -11 15 -25z m253 15 c89 0 102 -6 35 -15 -62 -9 -73 -18 -34 -25
24 -5 5 -8 -62 -9 -53 0 -103 -4 -112 -7 -13 -5 -16 1 -16 31 l0 38 53 -7 c28
-3 90 -6 136 -6z m-374 -30 c-18 -20 -17 -20 33 -20 28 0 54 -4 57 -10 4 -6
-7 -10 -25 -10 -81 0 -134 -57 -95 -100 20 -22 6 -27 -26 -9 -51 27 -42 115
15 150 43 26 65 26 41 -1z m909 -62 c-23 -40 -86 -73 -169 -90 -127 -26 -630
-10 -684 22 -9 5 -14 10 -11 10 3 1 163 5 355 10 314 7 357 10 416 29 36 11
74 30 84 41 26 29 31 17 9 -22z m-95 -812 c7 -26 18 -60 26 -75 19 -38 102
-138 147 -179 21 -19 37 -36 36 -38 -2 -1 -68 17 -146 41 -206 63 -314 79
-486 72 -156 -6 -256 -23 -406 -67 -55 -17 -102 -30 -105 -30 -4 0 27 26 67
58 81 65 139 126 162 169 8 16 24 68 35 117 18 77 21 119 21 343 l0 255 213
-6 c116 -4 257 -3 312 1 l100 8 7 -310 c3 -170 11 -332 17 -359z m43 -285 c52
-6 102 -18 125 -30 34 -18 36 -20 13 -21 -20 0 -14 -6 32 -31 100 -55 206
-157 273 -264 11 -19 -12 -2 -62 45 -184 173 -485 274 -808 273 -216 0 -368
-39 -602 -153 -222 -109 -334 -247 -363 -450 -9 -63 -1 -320 15 -470 3 -38 3
-40 -5 -15 -16 53 -43 347 -44 470 -1 168 22 235 111 323 53 52 87 74 199 128
227 110 438 171 674 193 120 12 339 12 442 2z m-187 -111 c128 -22 194 -41
189 -55 -4 -9 11 -21 40 -34 28 -12 46 -26 46 -36 0 -14 -8 -16 -52 -11 -29 3
-161 9 -293 12 -271 7 -415 -6 -571 -52 -210 -60 -301 -149 -366 -354 -20 -67
-23 -93 -22 -235 1 -88 9 -220 18 -293 20 -166 20 -182 1 -182 -8 0 -15 -6
-15 -12 1 -107 24 -365 35 -404 30 -105 147 -192 345 -258 278 -92 540 -99
790 -21 169 53 304 148 358 250 31 59 27 33 -5 -32 -57 -117 -159 -189 -354
-251 -266 -85 -502 -105 -739 -62 -89 16 -84 6 9 -19 82 -22 226 -39 361 -42
75 -2 74 -2 -45 -15 -209 -22 -424 6 -541 71 -118 66 -288 254 -314 346 l-9
34 27 -33 c33 -39 42 -40 43 -4 l0 27 16 -32 c9 -18 20 -33 25 -33 11 0 10 2
-6 41 -12 30 -57 263 -56 293 1 6 7 -2 16 -19 13 -28 14 -25 8 50 -3 44 -6 91
-7 105 -1 17 3 24 12 22 11 -2 13 9 8 60 -15 149 -28 470 -22 553 13 189 55
285 187 421 49 51 89 96 88 101 -5 23 266 98 405 113 94 10 305 5 390 -10z
m147 -160 c181 -18 327 -67 396 -133 17 -17 42 -56 54 -86 20 -50 23 -73 23
-216 -1 -172 -17 -313 -66 -580 -38 -203 -90 -342 -156 -415 -49 -55 -70 -61
-99 -29 -30 34 -60 41 -100 24 -28 -12 -40 -27 -64 -78 -45 -100 -108 -145
-234 -168 -115 -21 -216 17 -285 107 -49 64 -80 78 -157 69 -54 -6 -68 -4 -92
13 -18 13 -37 18 -55 15 -74 -14 -172 49 -217 141 -26 56 -58 202 -66 309 -7
81 -6 86 18 110 13 13 29 26 35 28 7 3 8 33 2 99 -10 115 -3 240 17 297 18 49
55 83 92 83 28 0 62 -25 62 -46 0 -7 12 -26 26 -43 52 -63 140 -31 164 60 30
110 44 143 84 196 73 99 188 161 337 181 l64 8 -75 12 c-41 7 -90 15 -109 18
-44 7 -36 13 35 23 82 12 250 12 366 1z m-1275 -982 c-3 -7 -5 -2 -5 12 0 14
2 19 5 13 2 -7 2 -19 0 -25z m10 -65 c-3 -10 -5 -4 -5 12 0 17 2 24 5 18 2 -7
2 -21 0 -30z m10 -65 c-3 -7 -5 -2 -5 12 0 14 2 19 5 13 2 -7 2 -19 0 -25z
m1723 -155 c-7 -62 -16 -113 -21 -113 -5 0 -7 17 -4 38 3 20 10 84 15 141 13
134 13 133 18 86 2 -22 -2 -91 -8 -152z m-1713 105 c-3 -8 -6 -5 -6 6 -1 11 2
17 5 13 3 -3 4 -12 1 -19z m10 -50 c-3 -8 -6 -5 -6 6 -1 11 2 17 5 13 3 -3 4
-12 1 -19z"/>
<path d="M2766 3386 c-56 -35 -151 -50 -275 -43 -58 3 -132 11 -164 18 -31 6
-60 9 -63 6 -3 -3 1 -16 10 -29 32 -45 15 -128 -38 -187 l-21 -24 30 7 c110
24 370 16 590 -19 50 -8 100 -12 111 -9 21 5 20 7 -13 72 -26 51 -35 85 -40
139 -6 69 -7 72 -36 83 -41 14 -46 13 -91 -14z"/>
<path d="M2741 2641 c-24 -24 -17 -59 15 -73 19 -9 28 -8 44 7 25 23 26 47 2
68 -24 22 -38 21 -61 -2z"/>
<path d="M2518 2239 c-25 -54 -47 -85 -78 -110 -79 -62 -109 -98 -125 -151
-29 -98 2 -171 110 -259 49 -39 76 -70 91 -104 20 -43 23 -45 29 -23 18 59 42
91 107 144 80 65 107 113 108 188 0 68 -30 125 -96 181 -59 51 -91 103 -103
168 l-7 42 -36 -76z m41 -134 c8 0 16 -5 18 -11 6 -17 -44 -23 -64 -8 -15 12
-16 15 -3 23 8 5 19 7 25 3 5 -4 16 -7 24 -7z m-44 -99 c0 -25 -6 -42 -16 -49
-23 -14 -67 0 -74 24 -10 29 31 71 65 67 22 -3 25 -8 25 -42z"/>
<path d="M3088 2179 c-11 -6 -18 -22 -18 -40 0 -23 6 -32 26 -40 48 -18 85 39
48 75 -18 18 -32 20 -56 5z"/>
<path d="M3204 1505 c-8 -21 2 -45 19 -45 8 0 20 7 27 15 10 12 10 18 0 30 -7
8 -19 15 -27 15 -7 0 -16 -7 -19 -15z"/>
<path d="M3052 1498 c-30 -30 0 -78 37 -58 32 17 21 70 -14 70 -6 0 -16 -5
-23 -12z m28 -8 c0 -5 -2 -10 -4 -10 -3 0 -8 5 -11 10 -3 6 -1 10 4 10 6 0 11
-4 11 -10z"/>
<path d="M2785 1124 c-38 -22 -109 -47 -165 -57 -14 -3 -1 -3 29 -1 54 3 148
41 171 69 16 19 14 18 -35 -11z"/>
<path d="M2033 3313 c-7 -3 -13 -13 -13 -23 0 -22 19 -30 42 -18 29 14 2 52
-29 41z"/>
<path d="M3330 3307 c0 -9 -16 -34 -35 -57 -41 -49 -44 -78 -12 -108 32 -30
71 -28 96 4 27 35 26 61 -4 106 -14 20 -25 41 -25 47 0 5 -4 13 -10 16 -5 3
-10 0 -10 -8z m20 -71 c0 -2 3 -11 6 -19 4 -11 -1 -13 -20 -10 -26 5 -32 14
-19 26 7 8 33 10 33 3z"/>
<path d="M1782 3198 c-19 -19 -15 -56 8 -63 28 -9 52 13 48 44 -3 29 -35 40
-56 19z"/>
<path d="M3534 2919 c-10 -17 13 -36 27 -22 12 12 4 33 -11 33 -5 0 -12 -5
-16 -11z"/>
<path d="M3570 2781 c13 -25 27 -34 34 -22 10 16 -5 41 -25 41 -16 0 -18 -3
-9 -19z"/>
<path d="M1352 2768 c-17 -17 -15 -35 5 -42 21 -8 48 17 40 38 -8 19 -28 21
-45 4z"/>
<path d="M3677 2382 c-19 -100 -70 -495 -112 -867 -38 -333 -67 -434 -176
-590 -170 -247 -316 -285 -1079 -285 -206 0 -395 -4 -419 -8 -47 -7 -63 -25
-34 -36 45 -18 403 -28 813 -23 382 4 464 8 575 25 163 26 256 47 298 68 29
16 30 18 12 25 -11 4 -77 8 -147 8 l-127 1 83 82 c123 124 206 269 241 421 8
34 37 260 65 502 27 242 55 475 62 518 11 71 10 83 -10 140 -12 34 -23 73 -24
87 -2 14 -11 -17 -21 -68z"/>
<path d="M3735 845 c-22 -8 -57 -32 -77 -53 -59 -64 -71 -148 -31 -225 15 -30
13 -36 -22 -51 -6 -3 -3 -9 5 -15 33 -23 467 -8 492 17 15 15 -19 33 -89 46
-37 6 -68 14 -67 17 0 2 6 25 13 50 37 133 -95 260 -224 214z m53 -82 c-4 -20
-30 -28 -56 -18 -16 6 -15 8 2 21 28 20 58 18 54 -3z m-49 -37 c8 -9 8 -21 1
-40 -11 -31 -25 -33 -40 -6 -22 41 11 80 39 46z"/>
<path d="M1831 727 c-37 -19 -30 -32 17 -35 40 -3 43 -2 40 20 -4 27 -24 33
-57 15z"/>
<path d="M4370 732 c-22 -6 -40 -33 -40 -57 0 -16 -11 -26 -41 -38 -58 -23
-46 -40 34 -51 114 -16 272 19 180 40 -58 13 -61 14 -56 34 10 39 -38 84 -77
72z m33 -36 c4 -10 0 -14 -14 -13 -10 1 -19 7 -19 14 0 18 27 16 33 -1z"/>
<path d="M1135 675 c-14 -13 -25 -35 -25 -48 0 -19 -7 -26 -30 -30 -72 -15 -3
-47 99 -47 105 0 137 15 85 38 -14 7 -22 17 -19 23 13 20 -6 59 -35 74 -39 20
-47 19 -75 -10z m63 -28 c2 -12 -3 -17 -17 -17 -12 0 -21 6 -21 13 0 31 32 34
38 4z"/>
<path d="M3272 591 c-67 -8 -78 -13 -67 -30 10 -17 197 -14 220 2 10 8 14 16
9 19 -18 12 -101 16 -162 9z"/>
</g>
</svg>